<?xml version="1.0" standalone="no"?>
<!DOCTYPE svg PUBLIC "-//W3C//DTD SVG 20010904//EN"
 "http://www.w3.org/TR/2001/REC-SVG-20010904/DTD/svg10.dtd">
<svg version="1.0" xmlns="http://www.w3.org/2000/svg"
 width="70.000000pt" height="70.000000pt" viewBox="0 0 70.000000 70.000000"
 preserveAspectRatio="xMidYMid meet">
<metadata>
Created by potrace 1.11, written by Peter Selinger 2001-2013
</metadata>
<g transform="translate(0.000000,70.000000) scale(0.100000,-0.100000)"
fill="#000000" stroke="none">
<path d="M0 502 l0 -198 45 3 c34 3 47 0 51 -12 4 -8 10 -15 14 -15 15 0 143
-60 138 -65 -2 -3 -28 5 -56 17 -47 20 -54 21 -68 7 -14 -14 -13 -21 5 -70 25
-65 25 -65 6 -49 -13 11 -14 10 -9 -4 3 -9 2 -16 -4 -16 -12 0 -30 45 -34 85
-3 25 -7 30 -30 30 -37 0 -46 13 -14 21 14 3 26 9 26 13 0 10 -52 31 -61 25
-5 -3 -9 -66 -9 -140 l0 -134 55 0 c44 0 59 4 79 25 30 30 57 32 73 6 10 -15
10 -21 0 -24 -7 -3 27 -6 76 -6 78 -1 104 7 78 23 -5 3 -12 22 -16 43 -5 27
-9 33 -16 22 -6 -9 -9 3 -9 39 0 55 5 62 26 35 11 -16 14 -13 29 25 10 23 26
47 36 53 13 6 19 21 19 44 0 24 5 35 19 40 15 4 20 19 26 70 3 36 11 65 16 65
19 0 8 37 -22 70 -17 19 -27 29 -24 22 4 -8 -7 -5 -27 6 -27 15 -51 19 -116
17 -73 -1 -84 -4 -104 -27 -39 -43 -48 -66 -49 -120 -1 -29 -4 -64 -8 -78 -6
-22 -8 -23 -14 -6 -5 11 -13 16 -23 12 -26 -10 -36 4 -15 22 23 19 30 77 14
106 -14 25 23 67 84 97 25 12 47 28 50 35 7 20 60 17 73 -3 11 -17 11 -17 6 0
-5 15 -2 16 14 7 27 -15 52 -3 40 20 -7 13 -6 20 6 24 21 8 45 -7 69 -43 22
-34 62 -52 44 -20 -5 10 -7 19 -5 19 16 0 38 -67 33 -102 -3 -25 -1 -38 6 -38
7 0 29 -13 49 -28 26 -20 34 -32 28 -42 -5 -9 -4 -20 3 -29 9 -11 9 -15 -1
-18 -6 -3 -9 -10 -5 -16 4 -6 0 -8 -10 -4 -12 4 -17 1 -17 -11 -1 -19 -30 -63
-30 -44 0 7 -4 12 -10 12 -5 0 -10 -7 -10 -15 0 -9 -6 -12 -15 -9 -8 4 -15 1
-15 -6 0 -7 -10 -25 -21 -42 -17 -23 -20 -39 -16 -74 2 -24 1 -47 -4 -50 -5
-2 -6 -19 -3 -37 4 -25 3 -28 -5 -11 -12 26 -61 60 -61 42 0 -26 20 -82 32
-90 7 -4 75 -8 151 -8 l137 0 0 350 0 350 -350 0 -350 0 0 -198z m95 -402 c9
-42 -1 -69 -24 -63 -24 6 -33 59 -14 79 21 21 31 17 38 -16z"/>
<path d="M390 638 c11 -24 50 -55 50 -41 0 5 -14 21 -30 37 -29 27 -30 27 -20
4z"/>
<path d="M265 600 c3 -5 8 -10 11 -10 2 0 4 5 4 10 0 6 -5 10 -11 10 -5 0 -7
-4 -4 -10z"/>
<path d="M160 10 c0 -6 7 -10 15 -10 8 0 15 2 15 4 0 2 -7 6 -15 10 -8 3 -15
1 -15 -4z"/>
</g>
</svg>
